<?xml version="1.0" encoding="UTF-8"?>
<svg id="Layer_2" data-name="Layer 2" xmlns="http://www.w3.org/2000/svg" viewBox="0 0 88.64 74.55">
  <defs>
    <style>
      .cls-1 {
        fill: #fff;
        stroke-width: 0px;
      }
    </style>
  </defs>
  <g id="Layer_1-2" data-name="Layer 1">
    <path class="cls-1" d="M88.26,71.38L55.33,25.52l.06-7.21c.02-.12.04-.23.04-.35v-3.96l.1-12.18h-.13c-.06-.68-.46-1.29-1.08-1.6-.68-.34-1.49-.27-2.09.19l-21.3,15.96c-.69.52-.97,1.42-.7,2.23s1.04,1.37,1.9,1.37h19.25l-.04,5.34-21.48,20.75-5.56-5.15c-.43-.39-1-.58-1.58-.52-.58.06-1.1.37-1.43.85L.36,71.41c-.42.61-.47,1.41-.13,2.07s1.03,1.07,1.77,1.07h84.64c.75,0,1.44-.42,1.78-1.09.34-.67.28-1.47-.15-2.08ZM38.13,15.96l13.29-9.96v7.96l-.02,2h-13.28ZM5.82,70.55l17.44-25.16,5.25,4.87c.78.72,1.99.71,2.75-.03l21.79-21.04,29.69,41.35H5.82Z"/>
  </g>
</svg>