<?xml version="1.0" encoding="UTF-8"?>
<svg id="Layer_2" data-name="Layer 2" xmlns="http://www.w3.org/2000/svg" viewBox="0 0 80.49 90.84">
  <defs>
    <style>
      .cls-1 {
        fill: #fff;
        stroke-width: 0px;
      }
    </style>
  </defs>
  <g id="Layer_1-2" data-name="Layer 1">
    <g>
      <path class="cls-1" d="M80.21,44.41c-8.06-13.65-22.7-22.27-38.48-22.78-.49-.03-.99-.05-1.49-.05s-.99.02-1.49.05c-15.78.51-30.42,9.13-38.48,22.78-.37.63-.37,1.41,0,2.03,8.07,13.65,22.71,22.26,38.48,22.77.49.03.99.05,1.49.05s.99-.02,1.49-.05c15.77-.51,30.41-9.12,38.48-22.77.37-.63.37-1.41,0-2.03ZM60.09,45.42c0,10.92-8.86,19.8-19.76,19.84-.03,0-.05,0-.08,0s-.05,0-.08,0c-10.91-.04-19.76-8.93-19.76-19.84s8.86-19.8,19.76-19.84c.03,0,.05,0,.08,0s.05,0,.08,0c10.91.04,19.76,8.93,19.76,19.84ZM4.34,45.42c4.42-7.03,10.8-12.51,18.16-15.92-3.79,4.22-6.1,9.8-6.1,15.91s2.31,11.69,6.1,15.91c-7.36-3.41-13.73-8.88-18.16-15.91ZM57.99,61.33c3.79-4.22,6.1-9.8,6.1-15.91s-2.31-11.69-6.1-15.91c7.37,3.41,13.74,8.88,18.16,15.92-4.43,7.03-10.8,12.5-18.16,15.91Z"/>
      <circle class="cls-1" cx="40.25" cy="45.42" r="7.89" transform="translate(-6.76 7.03) rotate(-9.22)"/>
      <path class="cls-1" d="M40.25,16.25c1.1,0,2-.9,2-2V2c0-1.1-.9-2-2-2s-2,.9-2,2v12.25c0,1.1.9,2,2,2Z"/>
      <path class="cls-1" d="M28.06,16.63c.3.81,1.06,1.32,1.88,1.32.23,0,.46-.04.68-.12,1.04-.38,1.57-1.53,1.2-2.56l-4.19-11.51c-.38-1.04-1.53-1.57-2.56-1.2-1.04.38-1.57,1.53-1.2,2.56l4.19,11.51Z"/>
      <path class="cls-1" d="M49.87,17.82c.23.08.46.12.68.12.82,0,1.58-.5,1.88-1.32l4.19-11.51c.38-1.04-.16-2.19-1.2-2.56-1.04-.38-2.19.16-2.56,1.2l-4.19,11.51c-.38,1.04.16,2.19,1.2,2.56Z"/>
      <path class="cls-1" d="M40.25,74.59c-1.1,0-2,.9-2,2v12.25c0,1.1.9,2,2,2s2-.9,2-2v-12.25c0-1.1-.9-2-2-2Z"/>
      <path class="cls-1" d="M30.63,73.02c-1.03-.38-2.19.16-2.56,1.2l-4.19,11.51c-.38,1.04.16,2.19,1.2,2.56.23.08.46.12.68.12.82,0,1.58-.5,1.88-1.32l4.19-11.51c.38-1.04-.16-2.19-1.2-2.56Z"/>
      <path class="cls-1" d="M52.43,74.22c-.38-1.04-1.52-1.57-2.56-1.2-1.04.38-1.57,1.53-1.2,2.56l4.19,11.51c.3.81,1.06,1.32,1.88,1.32.23,0,.46-.04.68-.12,1.04-.38,1.57-1.53,1.2-2.56l-4.19-11.51Z"/>
    </g>
  </g>
</svg>