<?xml version="1.0" standalone="no"?>
<!DOCTYPE svg PUBLIC "-//W3C//DTD SVG 20010904//EN"
 "http://www.w3.org/TR/2001/REC-SVG-20010904/DTD/svg10.dtd">
<svg version="1.0" xmlns="http://www.w3.org/2000/svg"
 width="157.000000pt" height="188.000000pt" viewBox="0 0 157.000000 188.000000"
 preserveAspectRatio="xMidYMid meet">

<g transform="translate(0.000000,188.000000) scale(0.100000,-0.100000)"
fill="#000000" stroke="none">
<path d="M733 1707 c-40 -19 -56 -37 -33 -37 6 0 10 5 10 10 0 6 9 1 20 -10
24 -24 26 -34 5 -26 -10 4 -15 -1 -15 -14 0 -11 -5 -20 -11 -20 -6 0 -8 7 -5
16 6 16 -9 44 -23 44 -3 0 -11 -8 -18 -19 -10 -15 -8 -23 9 -40 11 -12 17 -25
14 -28 -3 -3 -15 5 -27 18 -16 18 -19 20 -15 6 3 -10 -1 -25 -9 -33 -9 -10
-12 -22 -7 -37 5 -12 7 -32 6 -45 -1 -18 3 -21 20 -17 17 5 18 4 6 -4 -13 -9
-13 -14 3 -43 22 -42 50 -60 103 -68 38 -6 42 -5 40 14 -2 17 3 21 28 23 l30
2 -23 -16 c-17 -11 -20 -18 -11 -23 17 -11 72 6 88 27 6 9 12 13 12 9 0 -4 11
5 25 20 28 30 33 49 11 41 -8 -3 -20 0 -26 8 -9 11 -6 13 19 10 27 -3 31 -1
30 18 0 20 -1 21 -8 3 -7 -19 -8 -19 -23 2 -8 12 -18 19 -21 15 -4 -3 -7 1 -7
10 0 10 8 17 20 17 11 0 20 5 20 11 0 15 -81 89 -97 89 -20 0 -16 18 7 30 12
6 20 7 20 1 0 -5 -5 -11 -12 -13 -9 -3 -9 -6 -1 -11 6 -4 19 0 28 9 12 13 16
13 14 3 -5 -25 11 -58 26 -53 17 7 30 -35 22 -67 -3 -13 -1 -19 6 -16 16 5 16
34 0 82 -17 50 -47 83 -98 106 -51 23 -98 22 -152 -4z m78 -1 c-1 -3 -3 -5 -5
-3 -2 1 -13 -6 -24 -16 -11 -10 -26 -15 -37 -11 -13 6 -9 10 21 25 37 17 47
18 45 5z m32 -33 c-3 -21 -11 -33 -21 -33 -8 0 -20 -7 -27 -16 -11 -15 -12
-15 -18 5 -3 11 -1 21 4 21 4 0 6 7 3 15 -4 8 -1 15 5 15 6 0 11 -8 11 -17 0
-12 7 -6 21 16 24 39 28 38 22 -6z m-143 -31 c0 -13 -12 -22 -22 -16 -10 6 -1
24 13 24 5 0 9 -4 9 -8z m184 -58 c24 -9 20 -37 -4 -29 -13 4 -27 -1 -42 -14
-12 -12 -16 -21 -10 -21 7 0 12 -7 12 -15 0 -23 17 -18 25 8 7 21 7 21 12 2 3
-11 14 -26 24 -33 10 -7 16 -19 13 -27 -5 -11 2 -15 22 -16 28 -2 28 -2 4 -6
-17 -3 -30 -13 -36 -31 -8 -20 -18 -28 -39 -30 -26 -2 -27 -1 -11 11 16 12 15
15 -18 49 -40 41 -43 48 -21 48 8 0 15 7 15 15 0 8 -7 15 -15 15 -12 0 -15 10
-13 40 2 38 4 40 34 40 18 0 39 -3 48 -6z m-192 -33 c-11 -12 -16 -13 -20 -3
-2 6 -8 12 -13 12 -14 0 -11 -28 4 -33 9 -4 9 -6 0 -6 -7 -1 -17 8 -23 18 -11
22 -2 28 42 28 24 0 25 -2 10 -16z m15 -29 c-21 -23 -22 -46 -2 -38 8 3 15 1
15 -4 0 -6 -5 -10 -11 -10 -6 0 -7 -5 -2 -12 13 -21 14 -56 2 -64 -7 -4 -9 0
-5 12 7 25 -8 49 -24 39 -10 -6 -12 -2 -8 13 4 12 2 25 -3 28 -6 3 3 18 18 33
31 30 46 32 20 3z m58 -122 l20 -9 -20 0 c-17 -1 -18 -3 -5 -12 12 -9 12 -10
-3 -5 -10 3 -23 6 -28 6 -4 0 -6 7 -3 15 7 17 10 17 39 5z"/>
<path d="M90 1410 c0 -5 15 -31 34 -57 62 -89 247 -433 526 -978 73 -143 140
-270 148 -283 14 -21 15 -22 27 -5 6 10 103 198 215 418 111 220 206 405 210
410 4 6 37 69 75 140 65 125 157 288 191 340 l16 25 -103 0 c-63 -1 -112 -6
-125 -13 -53 -30 -111 -126 -305 -505 -169 -328 -162 -316 -185 -320 -22 -3
-47 38 -164 263 -238 460 -279 527 -340 557 -39 20 -220 26 -220 8z"/>
</g>
</svg>
