<?xml version="1.0" encoding="UTF-8"?>
<svg id="Layer_2" data-name="Layer 2" xmlns="http://www.w3.org/2000/svg" viewBox="0 0 77.87 72.13">
  <defs>
    <style>
      .cls-1 {
        fill: #fff;
        stroke-width: 0px;
      }
    </style>
  </defs>
  <g id="Layer_1-2" data-name="Layer 1">
    <g>
      <path class="cls-1" d="M72.24,13.79c0-2.96-2.39-5.37-5.34-5.37h-18.11l-.89-3.78c-.64-2.73-3.03-4.64-5.82-4.64h-11.93c-2.79,0-5.18,1.91-5.82,4.64l-.88,3.78H5.34c-2.94,0-5.34,2.41-5.34,5.37v21.08c0,1.34.51,2.55,1.31,3.49v20.79c0,2.81,2.27,5.09,5.06,5.09h46.23c-.15-.84-.23-1.72-.23-2.61,0-.55.03-1.1.09-1.63H6.37c-.45,0-.82-.38-.82-.85v-18.91h23.21v1.59c0,2.45,1.99,4.45,4.45,4.45h5.82c2.45,0,4.45-1.99,4.45-4.45v-1.59h23.21v6.41c.23,0,.46-.02.69-.02,1.22,0,2.41.15,3.55.42v-8.69c.81-.94,1.32-2.15,1.32-3.49V13.79ZM28.46,5.61c.19-.81.89-1.37,1.7-1.37h11.93c.81,0,1.51.56,1.7,1.37l.66,2.81h-16.64l.66-2.81ZM4.24,13.79c0-.62.49-1.13,1.1-1.13h61.57c.61,0,1.1.51,1.1,1.13v21.08c0,.62-.48,1.12-1.08,1.13h-23.45v-1.58c0-2.45-1.99-4.45-4.45-4.45h-5.82c-2.45,0-4.45,1.99-4.45,4.45v1.58H5.31c-.59-.01-1.08-.51-1.08-1.13V13.79ZM39.24,41.83c0,.11-.09.21-.21.21h-5.82c-.11,0-.21-.09-.21-.21v-7.41c0-.11.09-.21.21-.21h5.82c.11,0,.21.09.21.21v7.41Z"/>
      <path class="cls-1" d="M67.37,51.13c-5.8,0-10.5,4.7-10.5,10.5s4.7,10.5,10.5,10.5,10.5-4.7,10.5-10.5-4.7-10.5-10.5-10.5ZM65.86,66.6l-4.95-4.95,2.02-2.03,2.93,2.94,5.95-5.96,2.03,2.02-7.98,7.98Z"/>
    </g>
  </g>
</svg>