<?xml version="1.0" encoding="UTF-8"?>
<svg id="Layer_2" data-name="Layer 2" xmlns="http://www.w3.org/2000/svg" viewBox="0 0 70.55 70.49">
  <defs>
    <style>
      .cls-1 {
        fill: #fff;
        stroke-width: 0px;
      }
    </style>
  </defs>
  <g id="Layer_1-2" data-name="Layer 1">
    <g>
      <path class="cls-1" d="M35.25,65.73c-.74,0-1.46-.02-2.18-.08-3.12-1.89-6.14-7.71-7.81-16.08,3.13.38,6.49.58,9.99.58,1.38,0,2.73-.04,4.05-.1.46-1.31,1.06-2.54,1.79-3.69-1.87.14-3.82.21-5.83.21-3.8,0-7.37-.26-10.62-.71-.45-3.25-.71-6.82-.71-10.62s.26-7.36.71-10.62c3.25-.45,6.82-.71,10.62-.71s7.36.26,10.62.71c.45,3.26.71,6.82.71,10.62,0,1.92-.07,3.79-.2,5.57,1.14-.8,2.38-1.46,3.7-1.99.05-1.17.07-2.37.07-3.58,0-3.5-.2-6.84-.58-9.99,8.36,1.67,14.18,4.69,16.08,7.81.06.71.08,1.44.08,2.18s-.02,1.46-.08,2.18l-.2,1.88c.8.37,1.57.81,2.31,1.3.71.49,1.4,1.01,2.05,1.58.45-2.25.69-4.57.69-6.94C70.49,15.82,54.67,0,35.25,0S0,15.82,0,35.25s15.81,35.25,35.25,35.25c2.79,0,5.5-.32,8.11-.95-.74-.77-1.39-1.61-1.98-2.49-.38-.57-.74-1.15-1.05-1.76,0,0-4.34.44-5.08.44ZM27.12,5.87c-2.52,3.67-4.49,9.07-5.64,15.61-6.54,1.15-11.94,3.12-15.61,5.64,2.84-10.28,10.96-18.4,21.25-21.25ZM27.12,64.63c-10.28-2.85-18.4-10.96-21.25-21.25,3.67,2.52,9.07,4.49,15.61,5.64,1.15,6.54,3.12,11.94,5.64,15.61ZM20.93,45.23c-8.37-1.67-14.19-4.69-16.08-7.81-.06-.71-.08-1.44-.08-2.18s.02-1.46.08-2.18c1.9-3.12,7.73-6.14,16.08-7.81-.38,3.14-.58,6.49-.58,9.99s.2,6.84.58,9.99ZM35.25,20.34c-3.5,0-6.86.2-9.99.58,1.67-8.37,4.69-14.19,7.81-16.08.71-.06,1.44-.08,2.18-.08s1.46.02,2.18.08c3.12,1.9,6.14,7.73,7.81,16.08-3.14-.38-6.49-.58-9.99-.58ZM49.02,21.47c-1.15-6.54-3.12-11.94-5.64-15.61,10.28,2.85,18.4,10.96,21.25,21.25-3.67-2.52-9.07-4.49-15.61-5.64Z"/>
      <path class="cls-1" d="M57.22,43.15c-7.37,0-13.33,5.96-13.33,13.33s5.96,13.33,13.33,13.33,13.33-5.98,13.33-13.33-5.98-13.33-13.33-13.33ZM53,55.81c0,.48,0,.94-.01,1.42,0,.21-.08.4-.3.5-.21.1-.42.06-.6-.07-.06-.06-.13-.11-.19-.17-1.4-1.14-2.81-2.29-4.2-3.44-.43-.35-.43-.67-.02-1.01,1.45-1.21,2.9-2.42,4.36-3.62.2-.17.4-.27.67-.17.27.12.33.37.33.63v1.25c0,.37.01.38.38.38,2.07,0,4.14.01,6.21,0,.29,0,.51.07.65.32v3.32c-.14.25-.37.32-.65.32h-6.29c-.33,0-.35.01-.35.33ZM66.85,59.95c-1.48,1.21-2.95,2.42-4.43,3.63-.19.17-.4.24-.65.13-.24-.12-.3-.33-.3-.58,0-.45,0-.89-.01-1.33,0-.32-.01-.33-.35-.33-1.3-.01-2.6-.01-3.89-.01-.83,0-1.67.01-2.5,0-.35,0-.56-.18-.56-.5-.01-.99-.01-1.96,0-2.94,0-.24.12-.4.35-.48.11-.04.24-.04.37-.04h6.21c.31,0,.33-.02.33-.33v-1.15c0-.3-.01-.62.33-.77.33-.15.56.06.79.25,1.3,1.08,2.61,2.17,3.9,3.25.21.18.46.35.61.58v.4c-.06.07-.12.15-.2.23Z"/>
    </g>
  </g>
</svg>