<?xml version="1.0" encoding="UTF-8"?>
<svg id="Layer_2" data-name="Layer 2" xmlns="http://www.w3.org/2000/svg" viewBox="0 0 68.85 80.67">
  <defs>
    <style>
      .cls-1 {
        fill: #fff;
        stroke-width: 0px;
      }
    </style>
  </defs>
  <g id="Layer_1-2" data-name="Layer 1">
    <g>
      <path class="cls-1" d="M37.72,73.23c1.01,0,1.83-.82,1.83-1.83s-.82-1.83-1.83-1.83H5.13c-.81,0-1.48-.66-1.48-1.48V5.13c0-.81.66-1.48,1.48-1.48h47.69c.81,0,1.48.66,1.48,1.48v29.77c0,1.01.82,1.83,1.83,1.83s1.83-.82,1.83-1.83V11.09h2.3c.81,0,1.48.66,1.48,1.48v22.34c0,1.01.82,1.83,1.83,1.83s1.83-.82,1.83-1.83V12.56c0-2.83-2.3-5.13-5.13-5.13h-2.3v-2.3c0-2.83-2.3-5.13-5.13-5.13H5.13C2.3,0,0,2.3,0,5.13v62.97c0,2.83,2.3,5.13,5.13,5.13h2.3v2.3c0,2.83,2.3,5.13,5.13,5.13h25.16c1.01,0,1.83-.82,1.83-1.83s-.82-1.83-1.83-1.83H12.57c-.81,0-1.48-.66-1.48-1.48v-2.3h26.63Z"/>
      <rect class="cls-1" x="9.43" y="17.34" width="4.05" height="11.58"/>
      <rect class="cls-1" x="16.04" y="13.95" width="4.05" height="14.97"/>
      <rect class="cls-1" x="22.64" y="20.48" width="4.05" height="8.44"/>
      <path class="cls-1" d="M43.5,30.26l-2.97-8.07.35-8.59c-.12,0-.23,0-.35,0-4.72,0-8.6,3.88-8.6,8.6s3.88,8.6,8.6,8.6c1.01,0,2.02-.18,2.97-.53Z"/>
      <path class="cls-1" d="M49.51,22.44c0-.69-.09-1.37-.27-2.04l-7.61,2.04,2.73,7.39c3.09-1.14,5.15-4.1,5.15-7.39Z"/>
      <path class="cls-1" d="M49.91,18.87c-.46-1.69-1.47-3.23-2.84-4.32-1.39-1.11-3.07-1.73-4.85-1.8l-.41-.02-.33,8.85,8.54-2.31-.11-.4ZM42.34,20.49l.26-6.89c1.45.13,2.81.68,3.96,1.59,1.13.9,1.99,2.13,2.44,3.5l-6.65,1.8Z"/>
      <path class="cls-1" d="M36.67,41.51c0-.68-.55-1.24-1.24-1.24H10.29c-.68,0-1.24.55-1.24,1.24s.55,1.24,1.24,1.24h25.14c.68,0,1.24-.55,1.24-1.24Z"/>
      <path class="cls-1" d="M10.29,51.84h20.07c.68,0,1.24-.55,1.24-1.24s-.55-1.24-1.24-1.24H10.29c-.68,0-1.24.55-1.24,1.24s.55,1.24,1.24,1.24Z"/>
      <path class="cls-1" d="M10.29,60.92h21.65c.68,0,1.24-.55,1.24-1.24s-.55-1.24-1.24-1.24H10.29c-.68,0-1.24.55-1.24,1.24s.55,1.24,1.24,1.24Z"/>
      <polygon class="cls-1" points="50.5 55.88 47.97 53.34 46.21 55.09 50.5 59.39 57.41 52.48 55.66 50.72 50.5 55.88"/>
      <path class="cls-1" d="M68.85,69.62l-5.78-6.16c1.71-2.28,2.68-5.02,2.78-7.93.12-3.75-1.23-7.32-3.79-10.05-2.57-2.74-6.04-4.31-9.79-4.43-3.76-.11-7.32,1.23-10.05,3.79-5.65,5.3-5.93,14.2-.63,19.85,2.76,2.94,6.5,4.43,10.24,4.43,2.66,0,5.32-.76,7.64-2.26l5.78,6.17,3.61-3.39ZM43.98,62.42c-1.96-2.09-2.99-4.82-2.9-7.69.09-2.87,1.29-5.53,3.39-7.49,2.01-1.88,4.6-2.91,7.34-2.91.12,0,.23,0,.35,0,2.87.09,5.53,1.29,7.49,3.39s2.99,4.82,2.9,7.69-1.29,5.53-3.39,7.49c-4.32,4.05-11.13,3.83-15.18-.48Z"/>
    </g>
  </g>
</svg>