<?xml version="1.0" encoding="UTF-8"?>
<svg id="Layer_2" data-name="Layer 2" xmlns="http://www.w3.org/2000/svg" viewBox="0 0 68.85 80.67">
  <defs>
    <style>
      .cls-1 {
        fill: #fff;
        stroke-width: 0px;
      }
    </style>
  </defs>
  <g id="Layer_1-2" data-name="Layer 1">
    <g>
      <path class="cls-1" d="M37.72,73.23c1.01,0,1.83-.82,1.83-1.83s-.82-1.83-1.83-1.83H5.13c-.81,0-1.48-.66-1.48-1.48V5.13c0-.81.66-1.48,1.48-1.48h47.69c.81,0,1.48.66,1.48,1.48v29.77c0,1.01.82,1.83,1.83,1.83s1.83-.82,1.83-1.83V11.09h2.3c.81,0,1.48.66,1.48,1.48v22.34c0,1.01.82,1.83,1.83,1.83s1.83-.82,1.83-1.83V12.57c0-2.83-2.3-5.13-5.13-5.13h-2.3v-2.3c0-2.83-2.3-5.13-5.13-5.13H5.13C2.3,0,0,2.3,0,5.13v62.97c0,2.83,2.3,5.13,5.13,5.13h2.3v2.3c0,2.83,2.3,5.13,5.13,5.13h25.16c1.01,0,1.83-.82,1.83-1.83s-.82-1.83-1.83-1.83H12.56c-.81,0-1.48-.66-1.48-1.48v-2.3h26.63Z"/>
      <path class="cls-1" d="M36.67,43c0-.68-.55-1.24-1.24-1.24H10.29c-.68,0-1.24.55-1.24,1.24s.55,1.24,1.24,1.24h25.14c.68,0,1.24-.55,1.24-1.24Z"/>
      <path class="cls-1" d="M41.86,34.2c0-.68-.55-1.24-1.24-1.24H10.29c-.68,0-1.24.55-1.24,1.24s.55,1.24,1.24,1.24h30.33c.68,0,1.24-.55,1.24-1.24Z"/>
      <path class="cls-1" d="M10.29,53.04h20.07c.68,0,1.24-.55,1.24-1.24s-.55-1.24-1.24-1.24H10.29c-.68,0-1.24.55-1.24,1.24s.55,1.24,1.24,1.24Z"/>
      <path class="cls-1" d="M10.29,61.83h21.65c.68,0,1.24-.55,1.24-1.24s-.55-1.24-1.24-1.24H10.29c-.68,0-1.24.55-1.24,1.24s.55,1.24,1.24,1.24Z"/>
      <path class="cls-1" d="M68.85,69.62l-5.79-6.17c3.98-5.35,3.7-12.95-1.01-17.98-5.3-5.65-14.2-5.93-19.85-.63-5.65,5.3-5.93,14.2-.63,19.85,2.76,2.94,6.5,4.43,10.24,4.43,2.66,0,5.32-.76,7.64-2.26l5.78,6.17,3.61-3.39ZM43.98,62.42c-4.05-4.32-3.83-11.13.49-15.18,2.07-1.94,4.71-2.9,7.34-2.9,2.87,0,5.72,1.14,7.83,3.39,4.05,4.32,3.83,11.13-.49,15.18-4.32,4.05-11.13,3.83-15.18-.49Z"/>
      <path class="cls-1" d="M55.87,49.45c-.45-.34-1.09-.24-1.43.21l-7.22,9.74c-.34.45-.24,1.09.21,1.43.18.14.4.2.61.2.31,0,.62-.14.82-.41l7.22-9.74c.34-.45.24-1.09-.21-1.43Z"/>
      <path class="cls-1" d="M50.87,51.86c0-1.52-1.24-2.75-2.75-2.75s-2.75,1.24-2.75,2.75,1.24,2.75,2.75,2.75,2.75-1.24,2.75-2.75ZM46.92,51.86c0-.66.54-1.2,1.2-1.2s1.2.54,1.2,1.2-.54,1.2-1.2,1.2-1.2-.54-1.2-1.2Z"/>
      <path class="cls-1" d="M55.51,55.54c-1.52,0-2.75,1.24-2.75,2.75s1.24,2.75,2.75,2.75,2.75-1.24,2.75-2.75-1.24-2.75-2.75-2.75ZM55.51,59.5c-.66,0-1.2-.54-1.2-1.2s.54-1.2,1.2-1.2,1.2.54,1.2,1.2-.54,1.2-1.2,1.2Z"/>
      <path class="cls-1" d="M17.03,24.62c.22.24.51.36.86.36s.63-.12.85-.36.33-.6.33-1.1v-8.56h2.6c.41,0,.71-.09.92-.27s.31-.42.31-.71-.1-.53-.3-.72-.51-.27-.92-.27h-7.58c-.39,0-.69.09-.9.27s-.31.42-.31.72.1.53.3.71.5.27.91.27h2.6v8.56c0,.49.11.85.33,1.09Z"/>
      <path class="cls-1" d="M25.16,24.68c.16-.21.34-.6.56-1.19l.56-1.51h4.79l.56,1.48c.07.18.16.39.27.63s.2.42.29.53.2.21.34.27.29.1.48.1c.32,0,.6-.11.82-.34s.34-.48.34-.75-.12-.68-.36-1.26l-3.08-7.6c-.14-.38-.26-.68-.36-.91s-.21-.44-.35-.64-.32-.36-.54-.49-.5-.19-.83-.19-.6.06-.82.19-.4.29-.54.49-.27.46-.39.77-.22.57-.31.79l-3.01,7.65c-.12.31-.21.54-.27.72s-.08.34-.08.5c0,.28.12.53.35.75s.5.33.8.33c.35,0,.61-.1.76-.31ZM28.66,15.32l1.78,4.86h-3.52l1.74-4.86Z"/>
      <path class="cls-1" d="M43.04,24.49c.1.14.22.26.38.35s.35.14.57.14c.21,0,.4-.05.56-.14s.29-.21.39-.37.14-.33.14-.51c0-.2-.05-.41-.15-.63s-.27-.5-.49-.84l-2.5-3.85,2.32-3.47c.41-.62.62-1.1.62-1.46,0-.25-.1-.46-.29-.64s-.44-.27-.74-.27c-.17,0-.31.03-.44.08s-.24.14-.34.25-.21.25-.32.43-.24.38-.4.62l-1.89,2.86-1.77-2.86c-.33-.53-.58-.89-.77-1.09s-.44-.29-.78-.29c-.29,0-.53.09-.74.27s-.3.38-.3.61.05.45.16.69.26.52.47.86l2.22,3.42-2.64,3.85c-.39.57-.59,1.06-.59,1.45,0,.34.1.59.29.77s.43.27.72.27c.19,0,.35-.03.49-.09s.26-.14.36-.24.19-.21.26-.31.19-.29.37-.56l2.2-3.36,2.07,3.26c.26.4.44.67.54.81Z"/>
    </g>
  </g>
</svg>